<svg xmlns="http://www.w3.org/2000/svg" viewBox="0 0 1000 400" width="1000px" height="400px"><g style="stroke: #0000ff30;stroke-width: 10px;" transform="translate(158.2881317 8.087094099999987) rotate(180)"><polygon id="2-0" points="152.69106019181757,1.1817140440978415 151.69400570631598,1.1050175452131044 150.6969512208144,1.0283210463283674 149.6998967353128,0.9516245474436303 150.15543988885855,0.9866888892680625 149.15675222538195,0.9354741372949043 148.15806456190535,0.8842593853217458 147.15937689842877,0.8330446333485875 147.32394845967906,0.8415742570014315 146.3240410008601,0.8279700738882482 145.3241335420411,0.8143658907750647 144.32422608322213,0.8007617076618815 143.32431862440313,0.7871575245486981 143.75,0.79296875 142.75054596332467,0.8260085528653004 141.7510919266493,0.8590483557306006 140.751637889974,0.8920881585959011 139.75218385329865,0.9251279614612014 138.75272981662332,0.9581677643265019 137.753275779948,0.9912075671918021 137.8729860180776,0.9873075392414443 136.87384064548746,1.058668132237585 135.8772195868976,1.147698970027225 134.883122842308,1.2544000526103642 133.8915504117187,1.378771379987003 132.90250229512966,1.520812952157141 131.91597849254092,1.6805247691207783 130.93197900395242,1.8579068308779152 131.19341140450004,0.9970963272500211 131.43163442979304,0.32291154733939476 131.68271191232142,-0.7724596056913773 131.94664385208523,-2.289017131842295 131.78366403070547,-1.3112843397384673 131.94234212608922,-2.298614711015166 132.10102022147296,-3.2859450822918657 132.2596983168567,-4.273275453568564 132.4183764122405,-5.260605824845263 132.57705450762427,-6.247936196121963 132.43948851254345,-5.392222835863425 132.57022484311216,-6.3836400093426 132.7009611736808,-7.375057182821775 132.8316975042495,-8.366474356300952 132.96243383481817,-9.357891529780124 133.09317016538685,-10.349308703259297 133.02420105355122,-9.826284714982627 133.14474417894706,-10.81899280647771 133.2652873043429,-11.811700897972788 133.38583042973872,-12.80440898946787 133.50637355513456,-13.797117080962948 134.42454329321217,-13.07927451411474 134.1899310371125,-12.049815079820515 133.93094285765014,-11.046664537109896 133.6475787548251,-10.069822885982882 133.3398387286374,-9.119290126439473 133.00772277908703,-8.19506625847967 132.651230906174,-7.297151282103476 132.2703631098983,-6.4255451973108855 131.8651193902599,-5.5802480041019 132.21635061576688,-6.308324181108026 131.7470037588908,-5.345165676047348 131.25314197105257,-4.428391744780888 130.73476525225226,-3.558002387308647 130.19187360248986,-2.733997603630627 129.62446702176538,-1.9563773937468252 129.03254551007882,-1.225141757657244 128.41610906743017,-0.5402906953618808 128.8921813432679,-1.0626557913694101 128.18128179598006,-0.2983554130378059 127.44048692772404,0.40118219164307706 126.66979673849983,1.0359570226732386 125.8692112283075,1.6059690800526798 125.03873039714699,2.1112183637813993 124.17835424501831,2.5517048738593973 124.59262295327433,2.3495995074539042 123.66933633791666,2.7719409440859746 122.72755529130676,3.1054782074478258 121.76727981344462,3.350211297539456 120.78850990433028,3.5061402143608675 119.7912455639637,3.5732649579120586 118.77548679234489,3.55158552819303 119.53125,3.576171875 118.6554038352192,3.5588743999894104 117.65240926066105,3.506981974957643 116.52226627632552,3.4204945999046976 116.60769005432678,3.4278608245208755 115.68935641372246,3.3047400183797606 114.7414264116739,3.090269393079077 113.76390004818107,2.7844489486188246 112.75677732324398,2.387278684999002 112.81503425614355,2.412396278004682 111.98579686410662,2.0153063314861512 111.15639623790516,1.537740196954775 110.32683237753906,0.979697874410552 109.49710528300838,0.34117936385348324 108.66721495431311,-0.3778153347164321 108.8210512284528,-0.2384705129967838 108.19114893688129,-0.8515804199476593 107.5818422919495,-1.5401706937803923 106.99313129365736,-2.304241334494982 106.42501594200492,-3.143792342091429 105.87749623699219,-4.058823716569734 105.35057217861913,-5.049335457929894 104.84424376688577,-6.115327566171912 105.23919280450679,-5.273746413247499 104.88052636452937,-6.048464367632875 104.53819339002101,-6.870349047302083 104.2121938809817,-7.739400452255122 103.9025278374114,-8.65561858249199 103.60919525931016,-9.619003438012687 103.33219614667796,-10.629555018817216 103.07153049951478,-11.687273324905576 102.82719831782066,-12.792158356277767 102.59919960159557,-13.944210112933785 102.70766805097686,-13.379934260987868 102.52526408046118,-14.376297145523427 102.36202600781617,-15.41598015547358 102.21795383304179,-16.498983290838314 102.0930475561381,-17.625306551617644 101.98730717710508,-18.79494993781156 101.90073269594274,-20.00791344942007 101.83332411265104,-21.26419708644317 101.78508142723003,-22.56380084888086 101.75600463967967,-23.906724736733132 101.74609375,-25.29296875 101.74609375,-25.29296875 101.75472226185008,-26.462488260010193 101.78060779740032,-27.606885155409046 101.82375035665069,-28.726159436196525 101.88414993960123,-29.82031110237267 101.96180654625195,-30.88934015393746 102.0567201766028,-31.933246590890903 102.16889083065381,-32.95203041323299 102.29831850840498,-33.945691620963736 102.44500320985628,-34.91423021408312 102.60894493500777,-35.857646192591154 102.60894493500777,-35.857646192591154 102.81899703941095,-36.93303423546051 103.04524545136492,-37.978095697288786 103.28769017086972,-38.99283057807596 103.54633119792535,-39.97723887782206 103.82116853253177,-40.93132059652707 104.11220217468903,-41.855075734191 104.4194321243971,-42.74850429081384 104.74285838165599,-43.6116062663956 105.0824809464657,-44.44438166093626 104.9328367628929,-44.0860509856029 105.36130095526073,-45.08535825669486 105.81001324280322,-46.04121292256767 106.27897362552036,-46.953614983221286 106.76818210341217,-47.82256443865576 107.27763867647866,-48.64806128887108 107.80734334471981,-49.43010553386721 108.3572961081356,-50.1686971736442 108.92749696672605,-50.86383620820202 108.37081366688955,-50.18597866649233 109.0496411622856,-51.01949386010267 109.74013757399086,-51.79922180140495 110.44230290200534,-52.525162490399126 111.15613714632902,-53.197315927085235 111.88164030696191,-53.81568211146327 112.61881238390403,-54.38026104353322 112.52109921670292,-54.30901051303666 113.38760390631992,-54.90939455985553 114.26194233929706,-55.44145197966931 115.14411451563426,-55.905182772478 116.03412043533154,-56.30058693828162 116.93196009838894,-56.62766447708014 117.83763350480642,-56.88641538887359 117.01126804153083,-56.65315189985153 118.02450482502275,-56.94258910033217 119.02028119377103,-57.1595371251795 119.99859714777568,-57.3039959743935 120.95945268703669,-57.37596564797418 121.90284781155404,-57.37544614592153 121.435546875,-57.384765625 122.49336274580087,-57.344484013653926 123.50444234422142,-57.2236391796157 124.46878567026164,-57.022231122885344 125.3863927239215,-56.74025984346283 126.25726350520108,-56.37772534134819 125.7747794274523,-56.5908969935121 126.70290494264718,-56.17569751302619 127.5877828590957,-55.70489456503198 128.42941317679788,-55.17848814952943 129.22779589575367,-54.59647826651857 129.9829310159631,-53.95886491599937 129.26510537140717,-54.56708406050499 130.03363161633476,-53.916425343829964 130.75018477183363,-53.22029199033564 131.41476483790376,-52.478684000022 132.02737181454515,-51.691601372889046 131.99560984373957,-51.73527725197651 132.5931846022667,-50.88867122710741 133.14694131324808,-50.04570003445231 133.65687997668368,-49.206363674011186 134.12300059257356,-48.37066214578405 133.04539379582246,-48.36695326286185 133.0054257574736,-49.366154221583635 132.96545771912474,-50.36535518030543 132.92548968077585,-51.364556139027215 132.88552164242697,-52.363757097749 132.8455536040781,-53.36295805647079 132.8499519581166,-53.25297854474506 132.80412858392057,-54.25192810221897 132.7583052097245,-55.25087765969285 132.71248183552848,-56.249827217166754 132.6666584613324,-57.24877677464063 132.62083508713636,-58.24772633211454 132.5750117129403,-59.24667588958843 132.60621089603453,-58.566517753420065 132.53725102727614,-59.56413718812492 132.46829115851773,-60.561756622829776 132.39933128975932,-61.559376057534614 132.33037142100093,-62.556995492239466 132.26141155224252,-63.55461492694431 132.19245168348414,-64.55223436164917 132.24101719587435,-63.849693473251115 132.14101844585093,-64.84468103598432 132.0410196958275,-65.83966859871752 131.94102094580404,-66.83465616145071 131.8410221957806,-67.82964372418391 131.74102344575715,-68.8246312869171 131.75451265409666,-68.69064018486482 131.60199705781693,-69.67894124875751 131.44948146153718,-70.6672423126502 131.29696586525745,-71.65554337654291 131.14445026897772,-72.6438444404356 130.99193467269797,-73.63214550432829 131.15033466215453,-72.6070200574309 130.88488262696026,-73.74931068319579 130.59283007361404,-74.65466479930805 130.27417700211586,-75.32308240576768 130.94556516587613,-75.78548398357785 132.00026999290827,-75.60736790324066 133.0348830667454,-75.44568240849961 134.04940438738757,-75.3004274993547 135.04383395483464,-75.17160317580588 136.0181717690867,-75.0592094378532 136.9724178301438,-74.96324628549664 137.90657213800586,-74.88371371873622 138.82063469267285,-74.82061173757191 138.17090275528923,-74.86392677299145 139.17010371401102,-74.82395873464257 140.1693046727328,-74.78399069629371 141.16850563145462,-74.74402265794484 142.16770659017638,-74.70405461959595 143.16690754889817,-74.66408658124709 144.16610850761995,-74.62411854289822 145.16530946634174,-74.58415050454934 144.23828125,-74.62109375 145.23801508411478,-74.64416453078726 146.23774891822958,-74.66723531157453 147.2374827523444,-74.6903060923618 148.23721658645917,-74.71337687314906 147.386281832286,-74.69366842997105 148.3837405321167,-74.76491547995894 149.38119923194745,-74.83616252994688 150.3786579317782,-74.90740957993478 149.76316476007312,-74.86350725412244 150.82766504994126,-74.96966874022932 151.75210606309685,-75.09906487717937 152.53648779953986,-75.25169566497252 152.34379098335253,-74.50194410866244 152.179607654982,-73.7087251528259 152.02018913687806,-72.84330222626102 151.8655354290408,-71.90567532896773 151.71564653147013,-70.89584446094605 151.5705224441661,-69.81380962219599 151.43016316712874,-68.65957081271755 151.29456870035798,-67.4331280325107 151.37581036333296,-68.18175019035719 151.29072063312776,-67.18537689795438 151.20563090292256,-66.18900360555159 151.12054117271734,-65.19263031314877 151.0354514425122,-64.19625702074597 150.95036171230697,-63.19988372834317 150.86527198210177,-62.20351043594036 150.78018225189658,-61.20713714353755 150.69509252169138,-60.21076385113474 150.61000279148618,-59.21439055873195 150.62103808013035,-59.34288821297429 150.57220995513035,-58.28575930672429 150.5233818301304,-57.2286304004743 150.47455370513035,-56.17150149422429 150.42572558013035,-55.11437258797429 150.37689745513035,-54.05724368172429 150.32806933013035,-53.00011477547429 150.27924120513035,-51.94298586922429 150.23041308013035,-50.88585696297429 150.18158495513035,-49.82872805672429 150.13275683013035,-48.77159915047429 150.13355965207268,-48.78856637417962 150.11646980832268,-47.638664030429624 150.0993799645727,-46.488761686679624 150.08229012082268,-45.33885934292962 150.06520027707268,-44.18895699917962 150.04811043332268,-43.03905465542962 150.03102058957268,-41.88915231167962 150.01393074582268,-40.73924996792961 149.99684090207268,-39.589347624179624 149.97975105832268,-38.43944528042962 149.96266121457268,-37.28954293667962 149.962890625,-37.3046875 149.97998046875,-36.22558593750001 149.99707031250003,-35.14648437500001 150.01416015624997,-34.0673828125 150.03125,-32.98828125 150.04833984375,-31.9091796875 150.0654296875,-30.830078125 150.08251953125,-29.7509765625 150.099609375,-28.671875 150.11669921875,-27.5927734375 150.1337890625,-26.513671875 150.13353615534203,-26.529572918863156 150.18968849909206,-25.49685807511316 150.24584084284206,-24.46414323136316 150.30199318659203,-23.431428387613156 150.35814553034203,-22.398713543863156 150.41429787409203,-21.365998700113156 150.47045021784203,-20.33328385636316 150.52660256159203,-19.300569012613156 150.58275490534203,-18.267854168863156 150.63890724909203,-17.235139325113156 150.69505959284203,-16.202424481363156 150.6937666399199,-16.225810463306495 150.803623980283,-15.231863098116396 150.9134813206461,-14.237915732926291 151.02333866100926,-13.243968367736196 151.1331960013723,-12.250021002546092 151.24305334173548,-11.256073637355993 151.35291068209858,-10.262126272165894 151.46276802246172,-9.268178906975793 151.57262536282482,-8.274231541785692 151.68248270318793,-7.280284176595592 151.79234004355106,-6.286336811405494 151.71539451876626,-6.981846219917641 151.88337131771377,-5.883796022484552 152.05953267677828,-4.82099618736679 152.2438785959597,-3.793446714564354 152.4364090752581,-2.801147604077245 152.6371241146735,-1.8440988559054634 152.84602371420584,-0.9223004700490094 153.06310787385513,-0.03575244650788256 153.28837659362142,0.8155452147179174"/><polygon id="2-1" points="132.166015625,-27.294921875 132.166015625,-35.205078125 132.166015625,-35.205078125 132.14536639911972,-36.19185353369179 132.08341872147884,-37.192387535244464 131.9801725920774,-38.20668012965802 132.0223766730401,-37.83735843818287 131.8510320245065,-38.85538520119075 131.56345859077058,-39.79583404614314 131.15965637183237,-40.65870497304003 131.40550756056848,-40.173213200205176 130.88486907505197,-41.03253151716387 130.1819556808306,-41.728862902940335 129.29676737790442,-42.26220735753458 130.07760996426953,-41.807108840802805 129.27304096438593,-42.21151331187566 128.26831659092136,-42.403214321108926 127.06343684387573,-42.382211868502594 127.734375,-42.419921875 126.78672679889719,-42.19929952676074 126.00338082231129,-41.53743248204295 126.10504253176255,-41.658790070265084 125.54755619554737,-40.91410532265586 125.07306545856065,-40.018956795211395 124.68157032080234,-38.9733444879317 124.8346725329433,-39.427482050420785 124.53536571493113,-38.53312008185166 124.27096789467492,-37.5778231773634 124.04147907217472,-36.56159133695599 123.84689924743051,-35.48442456062945 123.97761324784854,-36.23517916594758 123.80405306825794,-35.23991305610853 123.6606736762422,-34.24842078801598 123.54747507180136,-33.26070236166993 123.46445725493544,-32.2767577770704 123.49636651177084,-32.69830003413527 123.43764448981938,-31.70002566096028 123.37892246786791,-30.701751287785278 123.32020044591644,-29.703476914610285 123.26147842396497,-28.705202541435284 123.30248261264768,-29.403080289082613 123.28228471362488,-28.40328428745275 123.26208681460204,-27.40348828582289 123.2418889155792,-26.40369228419302 123.25390625,-27.001953125 123.29147369715437,-26.002659030694275 123.32904114430872,-25.003364936388543 123.36660859146303,-24.004070842082815 123.40417603861744,-23.004776747777086 123.37497811907386,-23.786465189498344 123.46294346901811,-22.770682373788105 123.59691510759345,-21.77613962452228 123.77689303479991,-20.802836941700868 124.00287725063751,-19.85077432532388 123.92295991076524,-20.163647756250334 124.22841773139311,-19.149145263158562 124.62076226425822,-18.23086621823585 125.09999350936062,-17.408810621482207 125.66611146670029,-16.682978472897624 125.18766885809988,-17.282065010811454 125.90684704826567,-16.58596255303126 126.81488079635321,-16.253710389564137 127.91177010236241,-16.285308520410076 127.24609375,-16.22265625 128.27183308346952,-16.36073324039115 129.14372864668263,-16.774964211564598 129.86178043963932,-17.465349163520344 129.70276824153862,-17.27367332244601 130.27686192604713,-18.030012678671415 130.75950607590602,-18.890352447726453 131.15070069111533,-19.854692629611126 131.45044577167505,-20.92303322432544 131.23639814547224,-20.119105665089712 131.5017263163479,-21.065541486911677 131.71668728507387,-22.035468854609036 131.88128105165018,-23.02888776818179 131.9955076160768,-24.045798227629945 131.9731240803645,-23.804026421846714 132.0675369899084,-24.885669728826805 132.1305091381244,-25.900400523058515 132.16204052501254,-26.848218804541844 132.16213115057278,-27.729124573276795" class="null hole"/></g><g style="stroke: #0000ff30;stroke-width: 10px;" transform="translate(2.3230398 150.0177776) rotate(0)"><polygon id="0-0" points="52.53554823274098,1.1808464764607032 51.53965502627328,1.0903107304181847 50.543761819805574,0.9997749843756659 49.547868613337876,0.9092392383331473 50.392048578686,0.9860289862969761 49.393808454903194,0.9267275928049283 48.3955683311204,0.8674261993128811 47.397328207337594,0.8081248058208332 47.95669338966712,0.8415098485699174 46.956813553089816,0.8260078355997266 45.9569337165125,0.8105058226295356 44.95705387993519,0.7950038096593448 43.95717404335788,0.7795017966891541 44.82421875,0.79296875 43.82488529176416,0.829474081807702 42.825551833528316,0.8659794136154042 41.82621837529247,0.9024847454231062 40.82688491705663,0.9389900772308082 39.827551458820786,0.9754954090385102 38.82821800058494,1.0120007408462122 39.51107680715202,0.9871552016988792 38.54255546752551,1.0614363894498815 37.56454841217694,1.1546962912890428 36.577055641106305,1.2669349072163638 35.58007715431361,1.398152237231844 34.57361295179885,1.5483482813354836 33.557663033562015,1.717523039527282 32.996144400222356,1.2135864082771866 33.191456900222356,-12.507116716722813 34.17589825363469,-12.376438280952225 33.77980039541502,-10.926842296116268 33.34820099927604,-9.545092041594772 32.881100065217716,-8.231187517387736 32.37849759324008,-6.985128723495165 31.840393583343115,-5.806915659917055 31.26678803552683,-4.696548326653408 30.65768094979122,-3.6540267237042228 30.013072326136292,-2.679350851069498 29.332962164562037,-1.7725207087492365 28.61735046506846,-0.9335362967434369 28.61735046506846,-0.9335362967434369 27.855024176379484,-0.14913468006543462 27.06670080261987,0.5524906478339769 26.25238034378961,1.1713396869547976 25.412062799888723,1.7074124372970274 24.545748170917193,2.1607088988606664 23.65343645687503,2.531229071645715 22.735127657762227,2.818972955652172 21.79082177357879,3.023940550880039 20.820518804324713,3.146131857329315 19.82421875,3.185546875 19.82421875,3.185546875 18.91374771922897,3.1536897610905026 17.939322149121068,3.0581184193620117 16.900942039676295,2.898832849814527 15.798607390894654,2.6758330524480476 16.305777928139335,2.7847232253207452 15.38922424502001,2.5584283677917434 14.464465988675972,2.253882829669136 13.531503159107228,1.8710866109529234 12.590335756313776,1.4100397116431056 11.640963780295616,0.8707421317396825 12.281592596910684,1.242742700560769 11.484305380914112,0.763694503905326 10.694685089412863,0.21668400087703543 9.91273172240694,-0.3982888085241029 9.138445279896342,-1.0812239242980888 8.371825761881066,-1.8321213464449222 7.6128731683611175,-2.6509810749646037 8.30674876082013,-1.899359451820624 7.699924887491552,-2.5712178503458296 7.114777848924705,-3.3033389353563636 6.551307645119591,-4.095722706852228 6.00951427607621,-4.948369164833421 5.489397741794562,-5.861278309299944 4.990958042274647,-6.834450140251797 4.514195177516465,-7.867884657688978 4.87017948896164,-7.086220686222035 4.508360047741103,-7.8924135375492686 4.1649883084811545,-8.740242154547452 3.8400642711817916,-9.629706537216583 3.5335879358430176,-10.560806685556667 3.24555930246483,-11.533542599567697 2.9759783710472307,-12.547914279249678 2.724845141590218,-13.603921724602609 2.4921596140937936,-14.701564935626488 2.2779217885579564,-15.840843912321318 2.488121357827408,-14.721798956183905 2.3195598271275064,-15.630328164337751 2.1687117036314185,-16.57187687720888 2.0355769873391427,-17.54644509479728 1.9201556782506817,-18.554032817102968 1.8224477763660343,-19.59464004412594 1.7424532816852003,-20.668266775866186 1.6801721942081798,-21.774913012323722 1.635604513934973,-22.914578753498535 1.6087502408655798,-24.087263999390625 1.599609375,-25.29296875 1.599609375,-25.29296875 1.6164018020656208,-26.925756530430416 1.6667790832624823,-28.510700690664425 1.7507412185905844,-30.047801230702003 1.8682882080499281,-31.53705815054318 2.0194200516405125,-32.97847145018795 2.204136749362338,-34.3720411296363 2.4224383012154043,-35.717767188888246 2.674324707199712,-37.01564962794379 2.95979596731526,-38.265688446802905 3.2788520815620497,-39.46788364546561 3.2788520815620497,-39.46788364546561 3.625611883268095,-40.6317986635806 3.9912881303577343,-41.7525120301489 4.375880822830965,-42.83002374517051 4.77938996068779,-43.86433380864546 5.201815543928208,-44.855442220573735 5.643157572552219,-45.803348980955334 6.103416046559825,-46.70805408979026 6.582590965951024,-47.5695575470785 7.080682330725814,-48.38785935282007 7.5976901408841995,-49.16295950701497 7.5976901408841995,-49.16295950701497 8.257534797774147,-50.06631808082247 8.934012619770161,-50.907860456976834 9.627123606872237,-51.68758663547805 10.336867759080382,-52.40549661632615 11.06324507639459,-53.061590399521094 11.806255558814865,-53.65586798506291 12.565899206341204,-54.18832937295159 13.342176018973609,-54.658974563187144 14.13508599671208,-55.067803555769544 13.480796954028644,-54.73556056977619 14.453191942763901,-55.229000675527054 15.41871518974161,-55.642005990076775 16.37736669496177,-55.97457651342537 17.329146458424383,-56.22671224557283 18.27405448012945,-56.39841318651915 19.212090760076965,-56.48967933626433 20.143255298266936,-56.50051069480839 19.82421875,-56.505859375 20.886753149440146,-56.47467211302825 21.908472410816408,-56.38111032711299 22.889376534128782,-56.22517401725422 23.829465519377276,-56.00686318345194 24.72873936656188,-55.726177825706166 24.5999268762764,-55.77106799943082 25.58131809979463,-55.4048364359554 26.5096653123475,-54.99389430178858 27.38496851393501,-54.53824159693035 28.207227704557166,-54.03787832138071 28.97644288421396,-53.492804475139664 28.406668412320755,-53.90432460890377 29.240283937922104,-53.29643551804891 30.012788505315903,-52.65118325190036 30.724182114502174,-51.968567810458154 31.374464765480912,-51.248589193722296 31.28783142618265,-51.35078631172799 31.951598809483727,-50.53172994232613 32.53886449343764,-49.71260337772806 33.0496284780444,-48.89340661793375 33.483890763303975,-48.07413966294322 32.31443507498731,-48.247068719851825 32.191242725937556,-49.239451531641514 32.0680503768878,-50.23183434343119 31.944858027838045,-51.22421715522088 31.821665678788285,-52.216599967010566 31.87901031510846,-51.754061976867554 31.70557834132617,-52.73890782798841 31.53214636754388,-53.72375367910928 31.358714393761588,-54.708599530230146 31.1852824199793,-55.69344538135101 31.78751119256909,-56.20318096284546 32.76585243803715,-56.01848078895613 33.748860726830884,-55.85478335681026 34.73653605895029,-55.71208866640781 35.728878434395384,-55.590396717748796 36.72588785316614,-55.48970751083321 37.72756431526257,-55.41002104566106 38.73390782068467,-55.35133732223235 38.16456331502362,-55.3819238078956 39.16404342936332,-55.349682513884645 40.16352354370302,-55.317441219873686 41.16300365804272,-55.28519992586273 42.162483772382416,-55.25295863185177 43.16196388672212,-55.22071733784081 44.161444001061824,-55.18847604382985 45.160924115401514,-55.156234749818886 44.189453125,-55.1875 45.18908143151038,-55.21476259017756 46.188709738020755,-55.24202518035511 47.188338044531136,-55.26928777053267 48.187966351041524,-55.29655036071022 49.1875946575519,-55.32381295088778 50.187222964062286,-55.35107554106534 49.53973160264391,-55.333550911546176 50.53741529532546,-55.40157479968356 51.535098988006986,-55.469598687820934 52.53278268068852,-55.537622575958295 52.19730660835255,-54.87303785866244 52.02151596986889,-53.88861028315396 51.84572533138523,-52.904182707645475 51.66993469290157,-51.919755132137 51.494144054417916,-50.93532755662852 51.31835341593426,-49.95089998112003 51.1425627774506,-48.96647240561155 51.227235743369924,-49.439890930397915 51.111046907954325,-48.44666378894196 50.994858072538726,-47.45343664748601 50.87866923712311,-46.46020950603005 50.76248040170752,-45.46698236457409 50.646291566291914,-44.47375522311815 50.53010273087631,-43.48052808166219 50.413913895460716,-42.48730094020624 50.473474246340245,-42.996087591649484 50.406060388347925,-41.99836249336309 50.338646530355604,-41.0006373950767 50.271232672363276,-40.002912296790306 50.20381881437095,-39.00518719850392 50.13640495637863,-38.00746210021752 50.068991098386306,-37.00973700193113 50.00157724039398,-36.01201190364473 49.93416338240166,-35.01428680535835 49.98679558059062,-35.79287203426365 49.96471894346308,-34.79311575291648 49.94264230633554,-33.79335947156929 49.920565669208,-32.793603190222115 49.89848903208046,-31.79384690887494 49.87641239495292,-30.79409062752776 49.85433575782538,-29.794334346180584 49.83225912069784,-28.794578064833402 49.81018248357031,-27.794821783486228 49.81640625,-28.076171875 49.82370629871019,-26.605969869886223 49.84560644484076,-25.13479457057848 49.88210668839169,-23.66264597707675 49.93320702936301,-22.189524089381056 49.9989074677547,-20.71542890749139 50.07920800356677,-19.240360431407744 50.17410863679922,-17.76431866113013 50.28360936745204,-16.287303596658536 50.407710195525226,-14.809315237992973 50.5464111210188,-13.330353585133434 50.5464111210188,-13.330353585133434 50.70268784759808,-11.863649739103815 50.88031294615595,-10.414416356971907 51.079286416692376,-8.982653438737701 51.29960825920742,-7.5683609844012105 51.54127847370105,-6.171538993962427 51.804297060173255,-4.792187467421352 52.08866401862405,-3.430306404777985 52.39437934905344,-2.085895806032326 52.72144305146141,-0.7589556711843772 53.06985512584796,0.5505139997658628"/><polygon id="0-1" points="32.01953125,-27.294921875 32.01953125,-35.205078125 32.01953125,-35.205078125 31.998882024119712,-36.19185353369179 31.93693434647883,-37.192387535244464 31.833688217077366,-38.20668012965802 31.875892298040096,-37.83735843818287 31.70454764950653,-38.855385201190764 31.41697421577061,-39.79583404614314 31.01317199683232,-40.65870497304001 31.259023185568484,-40.173213200205176 30.738384700052002,-41.032531517163875 30.035471305830637,-41.72886290294034 29.15028300290441,-42.26220735753458 29.931125589269534,-41.807108840802805 29.12655658938591,-42.211513311875585 28.121832215921312,-42.403214321108884 26.916952468875735,-42.382211868502694 27.587890625,-42.419921875 26.571389935528483,-42.287851022938824 25.686527165885487,-41.89163846675529 24.93330231607101,-41.23128420644939 25.046931021951004,-41.35676374561606 24.483251851996393,-40.658656303399155 23.98323983498789,-39.8313823734031 23.546894970925514,-38.874941955627875 23.17421725980925,-37.7893350500735 23.301490086525256,-38.19637830449158 23.04280859834458,-37.33864955637837 22.818369229380057,-36.42027859877125 22.628171979631688,-35.441265431670196 22.472216849099475,-34.40161005507522 22.35050383778341,-33.301312468986325 22.2630329456835,-32.14037267340351 22.348463381563114,-33.27917302775467 22.27038077758041,-32.348519051970726 22.20580464702592,-31.392096223331684 22.154734989899644,-30.409904541837566 22.117171806201586,-29.401944007488364 22.093115095931743,-28.36821462028407 22.082564859090112,-27.308716380224695 22.085521095676704,-26.22344928731023 22.08203125,-27.001953125 22.099391812175217,-26.014142988186965 22.151473498700867,-25.020023003921942 22.238276309576946,-24.01959317220492 22.359800244803463,-23.012853493035912 22.346146948729682,-23.11335269662837 22.515827881430177,-22.07440257299577 22.738947805571073,-21.088977262531476 23.01550672115237,-20.15707676523549 23.34550462817407,-19.278701081107815 23.22003902900936,-19.590067034578258 23.664220503361026,-18.628345593285808 24.200584438798476,-17.79487714134597 24.829130835321724,-17.089661678758763 24.80812849834125,-17.109724647071786 25.61521384338956,-16.54376641264232 26.555741348265055,-16.25931439733837 27.629711012967753,-16.256368601159934 27.099609375,-16.22265625 28.125348708469538,-16.360733240391145 28.99724427168264,-16.774964211564598 29.715296064639297,-17.46534916352034 29.55628386653862,-17.27367332244601 30.130377551047136,-18.030012678671415 30.61302170090604,-18.89035244772646 31.004216316115315,-19.85469262961113 31.30396139667497,-20.923033224325437 31.089913770472226,-20.119105665089712 31.3552419413479,-21.065541486911677 31.570202910073874,-22.035468854609032 31.734796676650166,-23.02888776818179 31.849023241076768,-24.045798227629945 31.8266397053645,-23.804026421846714 31.921052614908394,-24.885669728826805 31.984024763124403,-25.900400523058515 32.015556150012536,-26.848218804541844 32.01564677557279,-27.7291245732768" class="null hole"/></g><g style="stroke: #0000ff30;stroke-width: 10px;" transform="translate(62.872838200000054 413.3192279) rotate(270)"><polygon id="5-1" points="251.50907673669013,-55.97683592908116 251.30471805859656,-55.135580173285206 251.11378835810694,-54.223644362189965 250.9362876352211,-53.24102849579543 250.77221588993916,-52.187732574101624 250.62157312226108,-51.06375659710851 250.48435933218684,-49.86910056481611 250.618272083996,-51.03712019619884 250.51653006858606,-50.04230937885701 250.41478805317604,-49.047498561515184 250.31304603776613,-48.052687744173355 250.21130402235616,-47.057876926831526 250.1095620069462,-46.0630661094897 250.00781999153622,-45.06825529214787 249.90607797612628,-44.07344447480603 249.9611393913278,-44.61150922721375 249.89729683348833,-43.61354924414403 249.83345427564882,-42.61558926107431 249.7696117178094,-41.6176292780046 249.70576915996992,-40.61966929493488 249.64192660213044,-39.62170931186516 249.57808404429096,-38.62374932879544 249.51424148645145,-37.62578934572573 249.450398928612,-36.62782936265601 249.49850770760514,-37.37963991954067 249.45550117686025,-36.38056512838974 249.41249464611536,-35.3814903372388 249.36948811537042,-34.38241554608786 249.32648158462553,-33.383340754936924 249.28347505388058,-32.38426596378599 249.2404685231357,-31.385191172635054 249.1974619923908,-30.386116381484115 249.15445546164585,-29.38704159033318 249.1813436246768,-30.01206573708011 249.1471639371768,-28.21030792458011 249.11298424967683,-26.408550112080118 249.07880456217677,-24.60679229958011 249.0446248746768,-22.805034487080107 249.0104451871768,-21.00327667458011 248.9762654996768,-19.20151886208011 248.9420858121768,-17.39976104958011 248.9079061246768,-15.59800323708011 248.8737264371768,-13.79624542458011 248.8395467496768,-11.99448761208011 248.83984375,-12.01171875 248.8334861888211,-10.99414390002294 248.81441350528456,-9.981146135652194 248.78262569939017,-8.972725456887762 248.73812277113814,-7.96888186372964 248.6809047205283,-6.9696153561778305 248.61097154756078,-5.974925934232333 248.5283232522355,-4.984813597893149 248.43295983455246,-3.999278347160276 248.32488129451173,-3.018320182033716 248.20408763211324,-2.0419391025134686 248.22543301984294,-2.2069256545073173 248.08389846460693,-1.1766626558359325 247.92515575004504,-0.15958907876036538 247.74920487615708,0.8442950767193854 247.55604584294318,1.834989810603319 247.34567865040327,2.812495122891436 247.1181032985374,3.7768110135837363 246.8733197873455,4.727937482680219 246.61132811682768,5.665874530180885 246.33212828698385,6.590622156085733 246.03572029781407,7.502180360394766 246.2526113998395,6.841740518480654 245.92682153054878,7.818725425175934 245.57978685335303,8.778450907510043 245.21150736825228,9.720916965482978 244.82198307524652,10.646123599094743 244.4112139743357,11.554070808345333 243.97920006551988,12.444758593234752 243.52594134879905,13.318186953763 243.05143782417318,14.174355889930075 242.5556894916423,15.013265401735977 242.73909355964418,14.709073784257152 242.1967721577964,15.580051897445559 241.62633870928582,16.41995761026607 241.02779321411248,17.228790922718687 240.40113567227633,18.006551834803403 239.7463660837774,18.75324034652022 239.06348444861567,19.46885645786914 238.3524907667912,20.153400168850162 237.6133850383039,20.80687147946329 236.84616726315386,21.42927038970852 237.45357871387458,20.941003186748304 236.6916372351664,21.546888055541693 235.9010192977946,22.120530854959537 235.08172490175912,22.661931585001838 234.23375404706007,23.171090245668605 233.35710673369738,23.648006836959834 232.45178296167103,24.092681358875517 231.51778273098114,24.505113811415665 230.5551060416276,24.88530419458027 229.5637528936104,25.233252508369336 230.2220598801999,25.006939177677687 229.34051711889097,25.301418839885617 228.43496113733545,25.56300773051002 227.50539193553328,25.791705849550905 226.5518095134845,25.987513197008266 225.5742138711892,26.150429772882113 224.5726050086472,26.28045557717243 223.54698292585863,26.37759060987922 222.4973476228234,26.441834871002495 221.42369909954164,26.47318836054225 220.32603735601325,26.47165107849848 220.947265625,26.4765625 219.85488780976576,26.456242524424393 218.79801503823148,26.395282597697584 217.77664731039732,26.293682719819564 216.79078462626313,26.151442890790342 215.84042698582905,25.968563110609914 214.925574389095,25.745043379278272 214.04622683606095,25.48088369679542 213.20238432672699,25.176084063161372 214.02763393906693,25.47473252963503 213.02422402598546,25.110240256439635 212.0754790330013,24.698245997600754 211.1813989601145,24.238749753118398 210.34198380732514,23.731751522992568 209.55723357463313,23.177251307223262 208.82714826203852,22.575249105810475 208.87388959864867,22.6166574169474 208.14209700389702,21.921079730695286 207.47534936090568,21.178804507026094 206.87364666967454,20.389831745939826 206.33698893020357,19.55416144743648 205.86537614249292,18.67179361151606 205.45880830654247,17.74272823817856 205.64512502608721,18.192858976877847 205.2965708896124,17.301029204057507 205.01309447381746,16.37510318915482 204.7946957787023,15.415080932169786 204.64137480426695,14.420962433102403 204.55313155051138,13.392747691952673 204.52996601743564,12.330436708720596 204.529296875,12.5 204.5723362827429,11.458345069789882 204.70145450597158,10.454948373118695 204.9166515446862,9.489809909986436 205.21792739888656,8.562929680393106 205.60528206857276,7.6743076843387055 205.45224237241246,7.9979426613356015 205.9117337551979,7.075628449310929 206.43253546539628,6.21462456469917 207.0146475030076,5.414931007500325 207.65806986803187,4.676547777714394 208.3628025604691,3.9994748753413765 207.84957160940672,4.480430984406726 208.59052930666033,3.8020197734528516 209.38211959450294,3.198068944509407 210.22434247293447,2.6685784975763878 211.117197941955,2.213548432653798 212.06068600156453,1.8329787497416359 211.248826005367,2.1546471712886173 212.2139185740901,1.7836948088701423 213.18221597070644,1.5187090578180407 214.15371819521602,1.3596899181323114 215.12842524761882,1.306637389812955 216.10633712791486,1.3595514728599714 215.13671875,1.306640625 216.1211138101981,1.364883627296805 217.08269385568536,1.539612634187221 218.02145888646177,1.8308276456712471 218.9374089025273,2.2385286617488833 219.8305439038819,2.7627156824201307 220.70086389052574,3.4033887076849885 220.01141026080953,2.8849705202665796 220.7055152419303,3.4305141056864246 221.35364470887973,4.072993565796113 221.95579866165772,4.812408900595646 222.5119771002644,5.648760110085023 223.0221800246997,6.582047194264245 223.48640743496364,7.612270153133309 223.90465933105622,8.739428986692221 222.82443905016777,8.489579389798688 221.83085018456745,8.297614281701197 222.3872934949309,8.27837627534546 221.37724278594692,8.231607715937987 221.728515625,8.21484375 220.80222284885966,8.413272463225706 219.94397420966652,9.008558602902822 219.96842724080872,8.985213782293204 219.36715343306187,9.793343505698212 219.15287661015844,10.747403920601583 219.32559677209832,11.847395027003312 219.15234375,10.791015625 219.35316606469155,11.775597300322643 219.95563300876614,12.492045238852143 219.44255383950255,11.94203177999841 220.10720546589613,12.681362081867011 221.0212048383852,13.171424176767395 220.2318213065993,12.773141149107257 221.1249275837112,13.218621622306383 222.11322392658792,13.378699571671895 221.27256486172394,13.262309308239665 222.2637061618738,13.414463959369249 223.1833378389892,13.317983852629169 222.36328125,13.416015625 223.30603297327318,13.32870072276752 224.3350531337603,13.066756016070075 224.24111516118188,13.096790361834607 225.0146820228373,12.704431133967788 225.7762800884271,12.01240756750658 226.5259093579512,11.02071966245099 226.16670483951341,11.53529422370333 226.62845680537785,10.866062088603025 227.08010288534868,10.067814765222149 227.52164307942584,9.140552253560706 227.9530773876094,8.084274553618696 228.37440580989932,6.898981665396116 228.14289159023994,7.569748025199074 228.39341342238353,6.828764813408768 228.63631443042527,6.017359133317655 228.87159461436494,5.135530984925728 229.09925397420278,4.183280368232993 229.31929250993872,3.1606072832394507 229.53171022157272,2.0675117299450965 229.73650710910476,0.9039937083499336 229.93368317253496,-0.3299467815460386 229.85288060748715,0.19005329529282916 230.00073886515264,-0.7819964906054847 230.14275211740153,-1.801226604888308 230.27892036423367,-2.8676370475556405 230.40924360564924,-3.981227818607483 230.5337218416482,-5.141998918043835 230.6523550722305,-6.349950345864696 230.76514329739618,-7.605082102070066 230.87208651714525,-8.907394186659948 230.97318473147763,-10.256886599634338 231.0684379403934,-11.653559340993237 231.0684379403934,-11.653559340993237 231.11482465914344,-13.382074965993237 231.1612113778935,-15.11059059099324 231.2075980966434,-16.839106215993237 231.25398481539338,-18.567621840993237 231.3003715341434,-20.296137465993237 231.3467582528934,-22.024653090993233 231.3931449716434,-23.753168715993237 231.43953169039344,-25.48168434099324 231.4859184091434,-27.210199965993237 231.5323051278934,-28.938715590993237 231.53125,-28.90625 231.51441736832965,-29.906108321219083 231.4975847366593,-30.905966642438173 231.48075210498894,-31.90582496365726 231.46391947331858,-32.905683284876346 231.44708684164823,-33.90554160609544 231.43025420997787,-34.90539992731453 231.41342157830752,-35.90525824853361 231.39658894663714,-36.9051165697527 231.4094535730802,-36.14067934016822 231.34956128235225,-37.138884185634 231.28966899162432,-38.13708903109978 231.22977670089634,-39.13529387656555 231.16988441016844,-40.133498722031334 231.1099921194405,-41.13170356749711 231.05009982871255,-42.12990841296289 230.9902075379846,-43.12811325842867 230.9303152472567,-44.126318103894455 230.97161883339925,-43.437986248887185 230.85340594361415,-44.43097452308213 230.735193053829,-45.42396279727708 230.6169801640439,-46.41695107147201 230.4987672742588,-47.40993934566696 230.38055438447367,-48.402927619861906 230.26234149468857,-49.39591589405684 230.14412860490347,-50.3889041682518 230.02591571511837,-51.38189244244674 230.12089193508055,-50.5841760069605 229.9590711788878,-51.60319592116558 229.78486499938012,-52.60879507672464 229.5982733965575,-53.60097347363766 229.39929637041996,-54.579731111904636 229.18793392096745,-55.545067991525585 228.96418604820008,-56.496984112500506 228.72805275211775,-57.43547947482939 229.449416182133,-57.879532516211384 230.27542005397396,-57.55227287180329 231.22029579161764,-57.245073724845284 232.284043395064,-56.957935075337346 233.46666286431304,-56.690856923279476 232.39665843751817,-56.930383750072664 233.23171410705876,-56.742355015899804 234.16978718758241,-56.570042295405806 235.2108776790891,-56.41344558859066 236.35498558157883,-56.27256489545438 236.26239460921272,-56.28294848578478 237.12943619034277,-56.196383641104866 238.05366522135134,-56.12685253836612 239.03508170223841,-56.07435517756861 240.07368563300395,-56.038891558712294 241.169477013648,-56.020461681797194 242.32245584417055,-56.0190655468233 241.845703125,-56.017578125 242.72030188118032,-56.02454376112841 243.62506116015496,-56.04544066951365 244.55998096192397,-56.08026885015573 245.5250612864873,-56.12902830305463 246.520302133845,-56.19171902821037 247.54570350399698,-56.26834102562293 248.60126539694326,-56.35889429529233 249.68698781268392,-56.46337883721855 250.80287075121888,-56.5817946514016 251.94891421254823,-56.71414173784149"/></g><g style="stroke: #0000ff30;stroke-width: 10px;" transform="translate(8.923989499999983 44.67480519999998) rotate(90)"><polygon id="3-0" points="199.23046875,-45.41015625 199.21079471641204,-44.40106915699549 199.15177261564804,-43.39930312715026 199.05340244770804,-42.40485816046431 198.91568421259205,-41.41773425693764 198.73861791030006,-40.43793141657025 198.52220354083212,-39.465449639362156 198.26644110418817,-38.50028892531333 197.97133060036816,-37.54244927442378 198.15920459875284,-38.13633983761358 197.84011288070778,-37.19359108325247 197.46251580314595,-36.2796305614116 197.02641336606743,-35.394458272090986 196.53180556947217,-34.53807421529062 195.97869241336016,-33.71047839101049 195.36707389773147,-32.911670799250615 194.69695002258604,-32.14165144001099 193.96832078792391,-31.40042031329161 194.35092261018426,-31.7786112100009 193.6957454657019,-31.152027636804988 192.98974980452266,-30.555137426008706 192.23293562664668,-29.98794057761206 191.4253029320739,-29.450437091615044 190.5668517208043,-28.94262696801766 189.6575819928379,-28.464510206819913 188.69749374817474,-28.016086808021797 187.68658698681475,-27.59735677162331 186.62486170875798,-27.208320097624455 187.05928118062067,-27.36168591680177 186.12784367917277,-27.050903183398223 185.14734402681063,-26.77271699537765 184.11778222353414,-26.527127352740038 183.03915826934346,-26.314134255485406 181.91147216423852,-26.13373770361374 180.73472390821934,-25.985937697125053 179.50891350128586,-25.87073423601933 178.23404094343817,-25.788127320296585 176.91010623467622,-25.738116949956805 175.537109375,-25.720703125 176.03545168291132,-26.261384129727453 176.16631765541158,-25.156460258420278 176.3707897968327,-24.14622940147416 176.64886810717476,-23.230691558889085 177.0005525864377,-22.40984673066506 176.98529953299996,-22.44040367274998 177.51300610386207,-21.512176743853715 178.1041933483047,-20.711360893452124 178.75886126632793,-20.037956121545204 179.47700985793173,-19.491962428132958 178.7948862324624,-20.00620901108175 179.61095112600267,-19.37886800573692 180.46614527151343,-18.882062846319737 181.36046866899474,-18.51579353283021 181.03886453965444,-18.63073530310153 182.04332951989062,-18.282113185442878 182.97978294644702,-18.035070491756098 183.8482248193237,-17.889607222041196 183.2925677191,-17.972403705049953 184.3646693133067,-17.819254387950757 185.2195558703413,-17.78915520494178 185.009765625,-17.78515625 185.7421875,-17.78515625 185.68609228169603,-17.78199961212073 186.73328572271777,-17.93068621734198 187.73978101277203,-18.135688045407722 188.70557815185876,-18.397005096317947 189.63067713997788,-18.71463737007266 190.51507797712955,-19.088584866671866 191.35878066331367,-19.518847586115555 190.94714258480383,-19.299086509411964 191.80612295794367,-19.76302020294802 192.6466488787384,-20.32795690325852 193.468720347188,-20.99389661034347 192.85777666728208,-20.48798096358762 193.59741801367966,-21.130506900438792 194.2813184588083,-21.86844142559249 194.9094780026679,-22.701784539048724 194.54963439945487,-22.203823455069525 195.09614686092078,-23.01094245220955 195.56009681952605,-23.90047340396115 195.94148427527082,-24.87241631032434 195.7975392444103,-24.47034297031606 196.07714494290397,-25.360234974313144 196.26952056114214,-26.336849974478426 196.37466609912488,-27.400187970811917 196.39258155685212,-28.55024896331361 197.33923834544262,-27.57827346317705 197.72909826876136,-26.565788732080488 198.0802030754497,-25.574521946960918 198.39255276550747,-24.60447310781834 198.66614733893482,-23.65564221465275 198.90098679573168,-22.728029267464162 199.09707113589806,-21.821634266252563 199.254400359434,-20.936457211017952 199.1488097700673,-21.551317108817816 199.32783849639787,-20.500363672909533 199.46932820123516,-19.476189154683475 199.57327888457905,-18.478793554139646 199.63969054642956,-17.508176871278035 199.66856318678674,-16.56433910609865 199.65989680565053,-15.647280258601485 199.669921875,-16.30859375 199.64737545528257,-15.258821698669273 199.57973619613045,-14.22916722125726 199.46700409754348,-13.219630317763958 199.30917915952173,-12.230210988189368 199.1062613820652,-11.26090923253349 198.85825076517386,-10.311725050796323 198.56514730884777,-9.382658442977869 198.22695101308688,-8.473709409078127 197.84366187789118,-7.584877949097098 198.04226510950906,-8.029845524052392 197.61493799087458,-7.098082786515587 197.14903300364895,-6.198602753448874 196.6445501478322,-5.331405424852257 196.10148942342425,-4.496490800725732 195.51985083042513,-3.693858881069301 194.89963436883482,-2.923509665882963 194.24084003865337,-2.1854431551667197 193.54346783988078,-1.4796593489205698 193.56007521191654,-1.4956592690137607 192.836796015343,-0.8324766857111593 192.08051217787448,-0.20688431078355013 191.291223699511,0.38111785576906687 190.4689305802526,0.9315298139466917 189.6136328200992,1.4443515637493243 188.72533041905086,1.9195831051769645 187.80402337710763,2.357224438229613 186.84971169426942,2.7572755629072683 185.86239537053623,3.1197364792099322 186.777759556421,2.7853939607884683 185.86766561247777,3.1154116899717637 184.93974085758666,3.405186013233448 183.99398529174772,3.6547169305735236 183.03039891496076,3.864004441991987 182.04898172722602,4.033048547488842 181.04973372854332,4.161849247064086 180.03265491891273,4.250406540717719 178.99774529833422,4.298720428449744 177.94500486680786,4.3067909102601565 178.271484375,4.30859375 177.25978471656504,4.288777538987968 176.25639573431286,4.229328905951871 175.26131742824333,4.13024785089171 174.27454979835656,3.9915343738074847 173.29609284465246,3.8131884746991935 172.3259465671311,3.595210153566838 171.36411096579246,3.3375994104104185 170.41058604063653,3.0403562452299346 169.4653717916633,2.7034806580253865 169.62578189717095,2.763660681208849 168.70638563086555,2.3953081496608597 167.8105542435939,1.9816646838909384 166.93828773535597,1.522730283899085 166.08958610615184,1.0185049496853007 165.26444935598144,0.4689886812495847 164.4628774848448,-0.12581852140806282 163.68487049274196,-0.7659166582876425 162.9304283796729,-1.4513057293891536 162.1995511456375,-2.1819857347125957 162.21174684192343,-2.1692195517268438 161.58161689940343,-2.862348755987924 160.97732092043293,-3.5958242016427358 160.39885890501176,-4.369645888691279 159.8462308531401,-5.183813817133554 159.31943676481785,-6.038327986969561 158.81847664004502,-6.9331883981993 158.34335047882166,-7.8683950508227705 157.8940582811477,-8.843947944839973 157.47060004702317,-9.859847080250907 157.0729757764481,-10.916092457055573 157.0729757764481,-10.916092457055573 156.7110669321231,-12.007377137722957 156.3871619803937,-13.144173237529685 156.10126092125986,-14.326480756475759 155.8533637547217,-15.55429969456118 155.64347048077906,-16.827630051785953 155.47158109943206,-18.14647182815007 155.33769561068064,-19.51082502365353 155.24181401452483,-20.92068963829634 155.1839363109646,-22.376065672078497 155.1640625,-23.876953125 155.1640625,-23.876953125 155.18781389074474,-25.508820093982454 155.25906806297888,-27.10310533332461 155.3778250167024,-28.65980884302644 155.5440847519154,-30.17893062308797 155.7578472686178,-31.6604706735092 156.0191125668096,-33.10442899429012 156.32788064649088,-34.510805585430724 156.68415150766157,-35.87960044693103 157.08792515032167,-37.21081357879102 157.5392015744712,-38.50444498101071 157.5392015744712,-38.50444498101071 158.03175455357209,-39.763532981361514 158.55708509294377,-40.98141441297453 159.11519319258613,-42.158089275849754 159.70607885249936,-43.293557569987215 160.3297420726834,-44.38781929538689 160.98618285313816,-45.44087445204878 161.67540119386373,-46.452723039972895 162.39739709486008,-47.42336505915924 163.15217055612723,-48.35280050960778 163.93972157766515,-49.241029391318555 163.93972157766515,-49.241029391318555 164.75812950128824,-50.09051359441209 165.60190797564124,-50.898207395727574 166.4710570007241,-51.66411079526499 167.36557657653694,-52.388223793024395 168.28546670307963,-53.07054638900574 169.23072738035225,-53.711078583209044 170.20135860835478,-54.3098203756343 171.1973603870872,-54.866771766281516 172.21873271654954,-55.381932755150686 173.26547559674177,-55.85530334224181 173.26547559674177,-55.85530334224181 174.32945488019476,-56.28502287671732 175.40387264295285,-56.66951327370402 176.48872888501595,-57.008774533201866 177.58402360638416,-57.302806655210915 178.68975680705745,-57.55160963973114 179.80592848703583,-57.755183486762554 180.93253864631924,-57.913528196305144 182.06958728490778,-58.026643768358916 183.21707440280133,-58.09453020292386 184.375,-58.1171875 184.375,-58.1171875 185.39878098343178,-58.09659465679826 186.4083077593656,-58.03481612719303 187.4035803278016,-57.931851911184346 188.38459868873963,-57.78770200877217 189.35136284217973,-57.60236641995652 190.30387278812185,-57.37584514473738 189.9373958558885,-57.46828384682956 190.94193450068252,-57.18744727444462 191.89908572106185,-56.844639263496006 192.80884951702654,-56.439859813983716 193.6712258885765,-55.97310892590775 194.4862148357117,-55.4443865992681 195.2538163584323,-54.853692834064766 194.70679346281287,-55.28459109667237 195.47159752627664,-54.661984400649715 196.17416234996224,-53.97331051014117 196.81448793386977,-53.218569425146725 197.39257427799916,-52.39776114566641 197.90842138235035,-51.51088567170018 198.3620292469235,-50.557943003248084 198.0048638819037,-51.32411666861977 198.37207487675295,-50.50342736822665 198.6740740494663,-49.62396805296982 198.91086140004376,-48.6857387228493 199.08243692848524,-47.68873937786507 199.18880063479082,-46.63297001801713 199.22995251896046,-45.51843064330551 199.20589258099417,-44.34512125373017"/><polygon id="3-1" points="175.3239511097438,-34.777025177173776 176.21403701680617,-34.8536465603368 177.19146221968697,-35.023052405600936 178.2562267183862,-35.285242712966166 179.40833051290372,-35.64021748243252 178.3791231572127,-35.3198736811315 179.33621840200047,-35.6266636570132 180.26410328435148,-35.99552793746561 181.16277780426572,-36.42646652248875 182.03224196174313,-36.91947941208262 181.68411152756653,-36.712608103437084 182.54398396678206,-37.26832775264744 183.3192199285357,-37.896600465067394 184.00981941282734,-38.59742624069695 184.61578241965714,-39.37080507953612 184.25380022010336,-38.88741430415802 184.79703232232166,-39.73449369834187 185.1264362772087,-40.6575902875824 185.24201208476453,-41.6567040718796 185.14375974498907,-42.731835051233475 185.2421875,-41.69921875 185.00536311403505,-42.67002342678672 184.29488995614017,-43.3768199309162 184.63168519606575,-43.12957102764656 183.79597174834177,-43.583590466063015 182.7349860818652,-43.68026343920375 182.958984375,-43.689453125 181.9486118435401,-43.587882752963495 181.01431663163538,-43.283171636853965 180.15609873928585,-42.77531977667143 180.2013124113375,-42.808522582848404 179.44075743048495,-42.1833667472092 178.7530988288218,-41.46717657912377 178.13833660634805,-40.659952078592156 177.59647076306362,-39.76169324561431 178.03152649565033,-40.49899019970229 177.52933878391937,-39.6570632058646 177.08646218862265,-38.76772305496088 176.7028967097601,-37.830969746991144 176.37864234733178,-36.84680328195537 176.54856039902526,-37.39071424199158 176.2399159704994,-36.3666706752651 176.01160715542437,-35.38741338659298 175.8636339538001,-34.45294237597524 175.79599636562662,-33.56325764341188" class="null hole"/></g><g style="stroke: #0000ff30;stroke-width: 10px;" transform="translate(6.267059399999994 50.44383400000001) rotate(90)"><polygon id="4-0" points="225.89837336402425,0.303824686587498 224.9011740541358,0.22903473834586374 223.90397474424734,0.15424479010422953 223.94964056652805,0.15757929443892232 222.9505447258449,0.11506457781410867 221.95144888516182,0.07254986118929502 220.9523530444787,0.030035144564481392 221.66118166974505,0.060204291883383554 220.6613117172129,0.04407735716512348 219.66144176468077,0.027950422446863396 218.66157181214868,0.011823487728603322 217.66170185961658,-0.004303446989656751 218.65234375,0.01171875 217.65301529515668,0.04836079334425542 216.6536868403133,0.08500283668851084 215.65435838547003,0.12164488003276627 214.65502993062668,0.15828692337702172 213.65570147578336,0.1949289667212771 212.65637302094,0.23157101006553252 211.6570445660967,0.26821305340978796 210.65771611125336,0.3048550967540434 211.36041042463845,0.27923000009429505 210.4340578783377,0.3443285907246971 209.49090643325226,0.4208304324277549 208.53095608938207,0.5087355252034683 207.5542068467272,0.6080438690518375 206.56065870528766,0.7187554639728624 205.5503116650634,0.8408703099665431 204.52316572605443,0.9743884070328793 203.47922088826078,1.1193097551718714 202.41847715168245,1.2756343543835191 201.89653640450004,0.5576432022500211 202.2604920942144,-0.2353766856293112 202.59952889078352,-1.1087758041191773 202.9136467942073,-2.0625541532195775 203.20284580448572,-3.0967117329305114 203.46712592161884,-4.211248543251978 203.41855890796356,-3.992096532221285 203.620753184535,-4.923341749612682 203.81103623249305,-5.875751444019219 203.9894080518378,-6.849325615440897 204.15586864256923,-7.844064263877714 204.31041800468734,-8.859967389329672 204.45305613819212,-9.897034991796769 204.58378304308354,-10.955267071279007 204.46021237501157,-9.95204126144888 204.5578567360123,-10.947262633187227 204.6555010970131,-11.942484004925575 204.75314545801382,-12.93770537666392 204.85078981901452,-13.932926748402267 204.94843418001528,-14.928148120140612 205.04607854101604,-15.92336949187896 205.14372290201678,-16.918590863617307 205.09194426801974,-16.390928475002408 205.14471616113818,-17.389535067859022 205.1974880542566,-18.388141660715636 205.25025994737507,-19.38674825357225 205.3030318404935,-20.385354846428868 205.35580373361194,-21.383961439285482 205.40857562673037,-22.382568032142093 205.4613475198488,-23.38117462499871 205.40852169782622,-22.381127015256205 205.43482837991442,-23.38078093460905 205.46113506200265,-24.380434853961894 205.48744174409092,-25.380088773314746 205.51374842617915,-26.379742692667595 205.54005510826738,-27.37939661202044 205.53031452382243,-27.008362854662533 205.5405180742553,-28.008310797086814 205.5507216246882,-29.008258739511106 205.56092517512116,-30.008206681935395 205.55474666109586,-29.3868398524784 205.5108013485959,-30.5733632899784 205.46685603609592,-31.7598867274784 205.42291072359583,-32.946410164978396 205.37896541109583,-34.132933602478396 205.33502009859586,-35.319457039978396 205.29107478609586,-36.505980477478396 205.24712947359586,-37.692503914978396 205.20318416109586,-38.8790273524784 205.1592388485959,-40.0655507899784 205.11529353609586,-41.252074227478396 205.11620808575856,-41.22857648192241 205.0391185875469,-42.2256006587935 204.9620290893352,-43.22262483566459 204.8849395911235,-44.219649012535676 204.80785009291185,-45.21667318940676 204.73076059470014,-46.213697366277856 204.7511186897399,-45.950367803777134 204.63832951256217,-46.94398674558106 204.52554033538442,-47.937605687385 204.41275115820667,-48.93122462918893 204.29996198102893,-49.92484357099286 204.18717280385118,-50.9184625127968 204.24101756037825,-50.44437661393148 204.07047612667247,-51.42972711978693 203.89993469296675,-52.41507762564238 203.729393259261,-53.40042813149783 203.55885182555525,-54.385778637353276 203.5885602555386,-54.21507424033448 203.31134895771783,-55.3232528425843 203.0024745714571,-56.24309491620603 202.66193709675647,-56.97460046119967 203.3078133926094,-57.47511677152583 204.3680053013095,-57.298111109199674 205.40656893461846,-57.137318434555425 206.42350429253628,-56.992738747593066 207.41881137506303,-56.864372048312646 208.39249018219869,-56.75221833671412 209.34454071394322,-56.65627761279751 210.27496297029663,-56.5765498765628 211.18375695125897,-56.51303512801 210.58301213028923,-56.55337989799145 211.58221308901102,-56.513411859642574 212.58141404773278,-56.473443821293706 213.58061500645462,-56.43347578294484 214.57981596517638,-56.393507744595965 215.57901692389817,-56.35353970624709 216.57821788261998,-56.31357166789822 217.57741884134174,-56.27360362954934 216.650390625,-56.310546875 217.65012031819688,-56.33379640274877 218.64985001139368,-56.35704593049752 219.64957970459054,-56.38029545824629 220.64930939778733,-56.403544985995055 219.77352527093862,-56.38309797716626 220.77093150747254,-56.45507574681304 221.76833774400637,-56.527053516459816 222.76574398054026,-56.59903128610658 222.12644601007312,-56.55296037912244 223.19094629994123,-56.65912186522933 224.11538731309687,-56.78851800217937 224.89976904953988,-56.941148789972516 224.70904033784547,-56.20077005743091 224.53730111215052,-55.30828443652617 224.37188710585545,-54.37984592776129 224.21279831896018,-53.41545453113626 224.0600347514649,-52.4151102466511 223.9135964033695,-51.3788130743058 223.77348327467394,-50.30656301410036 223.6396953653783,-49.19836006603479 223.51223267548255,-48.05420423010908 223.39109520498664,-46.874095506323215 223.27628295389067,-45.658033894677224 223.27628295389067,-45.658033894677224 223.1699570309254,-44.413251010391036 223.07482606686594,-43.15094968050896 222.99089006171224,-41.87112990503096 222.91814901546445,-40.57379168395708 222.85660292812247,-39.258935017287314 222.80625179968632,-37.92655990502165 222.767095630156,-36.57666634716008 222.73913441953152,-35.20925434370261 222.72236816781282,-33.824323894649254 222.716796875,-32.421875 222.716796875,-32.421875 222.74059965294632,-31.422158326255865 222.76440243089255,-30.422441652511722 222.78820520883883,-29.422724978767587 222.81200798678515,-28.42300830502345 222.83581076473143,-27.42329163127932 222.85961354267775,-26.423574957535184 222.883416320624,-25.423858283791045 222.90721909857032,-24.42414161004691 222.93102187651658,-23.42442493630277 222.91155665961756,-24.24225340162906 222.98802824013757,-23.245181640233334 223.0644998206576,-22.248109878837617 223.14097140117764,-21.251038117441894 223.21744298169767,-20.253966356046167 223.2939145622177,-19.256894594650447 223.37038614273771,-18.259822833254724 223.44685772325778,-17.262751071859 223.52332930377779,-16.265679310463277 223.5998008842978,-15.268607549067552 223.54406286826963,-15.99533773338079 223.6842315401916,-15.005210093421358 223.8244002121136,-14.01508245346193 223.96456888403554,-13.024954813502497 224.1047375559575,-12.034827173543068 224.24490622787948,-11.044699533583636 224.3850748998014,-10.054571893624203 224.52524357172342,-9.064444253664773 224.6654122436454,-8.074316613705344 224.80558091556733,-7.084188973745912 224.68660562152448,-7.9244957854246 224.87244354847482,-6.914361447117497 225.06867379343578,-5.914621064958226 225.27529635640735,-4.925274638946788 225.49231123738957,-3.946322169083184 225.71971843638232,-2.97776365536741 225.95751795338566,-2.0195990977994684 226.20570978839964,-1.07182849637936 226.46429394142416,-0.13445185110708316"/></g><g style="stroke: #0000ff30;stroke-width: 10px;" transform="translate(63.36254760000001 383.43045920000003) rotate(270)"><polygon id="1-0" points="99.328125,-41.40625 99.28922318160774,-40.425405594479315 99.1725177264309,-39.44453386311844 98.97800863446949,-38.46363480591737 98.70569590572356,-37.48270842287612 98.35557954019303,-36.501754713994686 98.5927438536505,-37.141518770019466 98.22500721297,-36.19373936888072 97.7916283998205,-35.290601618806726 97.292607414202,-34.43210551979749 96.72794425611448,-33.61825107185302 96.09763892555799,-32.8490382749733 96.48304809237464,-33.304401420884616 95.82902175399887,-32.56420659112368 95.11019811696335,-31.886179700584382 94.32657718126802,-31.27032074926673 93.47815894691297,-30.716629737170734 92.56494341389816,-30.225106664296387 93.08571617534575,-30.493457128434553 92.2057671509042,-30.075454646193233 91.28230538681854,-29.75568224120699 90.31533088308879,-29.53413991347581 89.30484363971495,-29.410827662999694 88.25084365669701,-29.385745489778646 88.525390625,-29.3828125 87.42664077656173,-29.431900445790493 86.4126979557054,-29.579164283161973 85.48356216243099,-29.824604012114435 84.63923339673849,-30.168219632647883 84.64550078594786,-30.165154749292242 83.73767137212374,-30.67029041289252 82.93100688427174,-31.258202039038466 82.2255073223918,-31.928889627730083 81.62117268648399,-32.682353178967375 81.98893623520131,-32.19943905016776 81.4072156332677,-32.99386948921074 80.92613474946454,-33.860263699942365 80.54569358379185,-34.798621682362636 80.26589213624963,-35.80894343647155 80.45391368440032,-35.08512128973978 80.20698350796454,-36.05481976075357 80.04695215222905,-37.038240019319495 79.97381961719385,-38.03538206543758 79.98758590285898,-39.046245899107824 79.96875,-38.37890625 80.00973226478338,-39.45365126240481 80.13267905913352,-40.4825667782179 80.33759038305041,-41.46565279743929 80.62446623653409,-42.40290932006895 80.9933066195845,-43.294336346106896 81.44411153220167,-44.13993387555313 81.97688097438561,-44.93970190840764 82.60858900078564,-44.42819253699577 83.06669451267913,-43.52286717152934 83.76954484777514,-43.089876157116436 83.17031149223492,-43.41461284426255 83.97370844997083,-42.85007897705954 83.87710158817706,-42.89587897044263 84.84387368971336,-42.675019485298115 84.66796875,-42.6875 85.74417953770862,-42.870000892924395 86.23126939093862,-43.41750357169758 86.04878021664773,-43.08431433783217 86.40874595869087,-43.99408112864167 86.4844926398942,-45.09163686556577 86.462890625,-44.287109375 86.2062336211661,-45.20503896535194 85.4362626096644,-46.07677301408537 85.94006799994187,-45.58314118745277 85.21513179558767,-46.05760549288068 84.09867174307188,-46.17841556541473 84.130859375,-46.1796875 83.1805710396495,-46.09564309170567 81.73364301632697,-45.84350986682266 82.960644877214,-46.063259435387614 82.06129185422733,-45.82608042513778 81.04715550525789,-45.36968320044709 81.29831337851071,-45.49788140217805 80.49202095491901,-45.026931459102876 79.67800871262277,-44.396942619379246 78.85627665162198,-43.60791488300714 79.39295992468364,-44.14043919168685 78.78028565631152,-43.4819459813134 78.20261422327059,-42.676792624263186 77.65994562556084,-41.724979120536226 77.15227986318229,-40.6265054701325 77.61876518369547,-41.64392911877766 77.25023410382883,-40.840888154312466 76.9152060505169,-39.95087948531311 76.61368102375968,-38.973903111779606 76.34565902355718,-37.909959033711935 76.11114004990938,-36.75904725111012 76.27022057203796,-37.56645812114238 76.10918198426207,-36.715236310559646 75.97748656476973,-35.806857034040384 75.87513431356093,-34.84132029158458 75.80212523063571,-33.81862608319224 75.758459315994,-32.73877440886337 75.74413656963586,-31.601765268597962 75.75915699156127,-30.40759866239602 75.744140625,-31.591796875 75.77407149865358,-30.425860627854693 75.86386411961432,-29.337884058523276 76.01351848788218,-28.327867167005763 76.22303460345722,-27.395809953302155 76.49241246633943,-26.541712417412445 76.82165207652876,-25.76557455933663 76.77032720276637,-25.873013928593767 77.28264278725224,-24.89347747111899 77.83990361336654,-24.025567899670552 78.44210968110919,-23.269285214248434 79.0892609904802,-22.624629414852638 79.7813575414796,-22.091600501483168 79.20254625716976,-22.52714938357559 80.0436040852173,-21.901546795868523 80.91259287473751,-21.407745908579173 81.80951262573039,-21.04574672170754 82.73436333819598,-20.81554923525363 82.15919628015814,-20.942336988930755 83.25260156287638,-20.69181448065623 84.22217724403433,-20.551887000037688 85.06792332363207,-20.522554547075124 84.86328125,-20.51953125 85.72814265293519,-20.57582851076252 86.75659158621876,-20.74472029305008 87.9486280498507,-21.026206596862682 87.33707621360534,-20.8725503427839 88.25532180831087,-21.14416864199108 89.1689237123037,-21.527507552083655 90.07788192558382,-22.022567073061637 90.98219644815126,-22.629347204925022 90.28375374416737,-22.1506220326239 91.0491026058686,-22.69999077112929 91.77750816999868,-23.352769354281392 92.46897043655764,-24.10895778208021 93.12348940554541,-24.968556054525745 92.95599195312663,-24.73391203344951 93.44419416453032,-25.497290882308434 93.85682981177908,-26.351082427455975 94.19389889487297,-27.29528666889214 94.45540141381196,-28.32990360661692 94.64133736859606,-29.454933240630325 95.48278371203783,-29.18598642750053 95.97656346749574,-28.397456643142654 96.43096102199112,-27.55326241877761 96.84597637552399,-26.653403754405407 97.22160952809432,-25.69788065002603 97.55786047970216,-24.686693105639495 97.85472923034746,-23.61984112124579 97.64840270520389,-24.3816675450813 97.89857350233919,-23.426297424840005 98.10203120485343,-22.457783016208985 98.25877581274665,-21.476124319188255 98.36880732601881,-20.4813213337778 98.43212574466992,-19.473374059977633 98.4487310687,-18.452282497787746 98.44921875,-18.603515625 98.42648447366466,-17.605531381624147 98.35828164465866,-16.61350751495086 98.24461026298196,-15.627444024980147 98.08547032863464,-14.647340911712005 97.88086184161662,-13.673198175146435 97.63078480192793,-12.705015815283435 97.33523920956858,-11.742793832123006 96.99422506453854,-10.786532225665146 96.60774236683784,-9.836230995909858 96.92562635524597,-10.60892850652241 96.53499430381487,-9.670578108418026 96.10712848198939,-8.758293010252094 95.64202888976955,-7.8720732120246195 95.13969552715531,-7.0119187137355965 94.60012839414672,-6.17782951538503 94.02332749074375,-5.369805616972918 93.4092928169464,-4.587847018499259 92.75802437275468,-3.831953719964056 92.06952215816858,-3.1021257213673064 92.62919283364411,-3.6903201329793633 91.94458130907128,-2.9791926593586284 91.22735886397054,-2.302837874196812 90.47752549834189,-1.6612557774939147 89.6950812121853,-1.054446369249936 88.88002600550078,-0.4824096494648753 88.03235987828833,0.054854381861266566 87.15208283054798,0.5573457247284894 86.2391948622797,1.0250643791367942 85.2936959734835,1.4580103450861797 85.95410688654768,1.1608766385470781 85.06392786170817,1.5495008731618731 84.15340740038317,1.8917760592938964 83.22254550257273,2.1877021969431483 82.2713421682768,2.437279286109629 81.2997973974954,2.640507326793338 80.30791119022851,2.797386318994276 79.29568354647617,2.907916262712442 78.26311446623835,2.972097157947837 77.21020394951506,2.98992900470046 77.34375,2.990234375 76.29965147329631,2.964721428591497 75.27822685394723,2.888182589365986 74.2794761419528,2.760617857323467 73.30339933731298,2.5820272324639424 72.34999644002781,2.35241071478741 71.41926745009728,2.07176830429387 70.51121236752138,1.740100000983324 70.82053202920581,1.8597661512845223 69.88107787186134,1.4799737772585762 68.970619143898,1.056060559206998 68.08915584531576,0.5880264971297867 67.23668797611465,0.0758715910269433 66.41321553629463,-0.4804041591015331 65.61873852585573,-1.0808007532556423 64.85325694479793,-1.7253181914353832 65.38010986823656,-1.274420812893081 64.6380464906845,-1.9145263820025384 63.921451248423494,-2.589816375602965 63.230324141453536,-3.3002907936943613 62.564665169774614,-4.045949636276727 61.92447433338674,-4.82679290335006 61.30975163228991,-5.642820594914364 60.720497066484114,-6.494032710969636 61.06446378734898,-5.9884409922112125 60.512477652072704,-6.81015760183762 59.98839130770878,-7.651964605721116 59.4922047542572,-8.513862003861703 59.023917991717965,-9.39584979625938 58.5835310200911,-10.297927982914144 58.171043839376594,-11.220096563826 57.786456449574416,-12.162355538994946 57.910037480277445,-11.84980774306417 57.55660124970961,-12.769138032619896 57.2292121056535,-13.70201551792983 56.9278700481091,-14.64844019899397 56.65257507707645,-15.608412075812316 56.40332719255551,-16.581931148384875 56.18012639454629,-17.568997416711635 55.98297268304881,-18.569610880792602 56.00254625696176,-18.46339140307861 55.83114203240414,-19.45770563379404 55.68624607299698,-20.452019864509456 55.5678583787403,-21.446334095224877 55.475978949634104,-22.440648325940305 55.41060778567839,-23.434962556655734 55.37174488687314,-24.429276787371148 55.35939025321837,-25.423591018086572 55.359375,-25.390625 55.372760252168305,-26.36681418573364 55.4129160086732,-27.34773142207025 55.47984226951469,-28.333376709009833 55.573539034692786,-29.32375004655239 55.69400630420748,-30.31885143469792 55.84124407805877,-31.318680873446418 56.01525235624666,-32.323238362797895 56.21603113877115,-33.332523902752335 56.20011422940256,-33.25699763086613 56.41888368603266,-34.24259568105414 56.65957998282486,-35.219120542150705 56.92220311977917,-36.18657221415585 57.206753096895596,-37.14495069706956 57.51322991417412,-38.09425599089184 57.841633571614736,-39.03448809562268 58.19196406921747,-39.96564701126209 58.56422140698231,-40.88773273781007 58.95840558490925,-41.80074527526661 58.59662613469632,-40.96510061717755 58.99873427792434,-41.888647850400034 59.423398772743234,-42.798194467055126 59.870619619153,-43.69374046714285 60.34039681715362,-44.57528585066319 60.83273036674511,-45.44283061761615 61.347620267927475,-46.296374768001726 61.8850665207007,-47.135918301819906 62.44506912506479,-47.9614612190707 62.431597791615005,-47.94214633084409 63.03465698592771,-48.77835700046548 63.65779815831571,-49.58528459419253 64.301021308779,-50.36292911202524 64.96432643731757,-51.11129055396361 65.64771354393142,-51.83036892000766 66.35118262862056,-52.520164210157354 67.07473369138499,-53.18067642441271 67.81836673222472,-53.81190556277374 67.5991796513664,-53.630638332515446 68.38331473401264,-54.259558518280386 69.18884838497057,-54.852814378099886 70.0157806042402,-55.41040591197394 70.86411139182152,-55.932333119902566 71.73384074771454,-56.418596001885746 72.62496867191926,-56.86919455792348 73.53749516443568,-57.284128788015785 74.4714202252638,-57.66339869216265 73.98137850680756,-57.46992491200776 74.90612089039561,-57.81889258370187 75.84628047665548,-58.11906809037884 76.8018572655871,-58.370451432038685 77.77285125719054,-58.573042608681405 78.75926245146576,-58.726841620307 79.76109084841276,-58.831848466915474 80.77833644803155,-58.88806314850681 81.81099925032215,-58.89548566508102 81.4453125,-58.8984375 82.54547602028579,-58.87718598456338 83.6032234479609,-58.813431438253524 84.61855478302529,-58.7071738610704 85.59147002547903,-58.55841325301405 86.52196917532204,-58.367149614084454 87.41005223255439,-58.13338294428161 88.25571919717606,-57.857113243605525 87.69897106261635,-58.0452840003696 88.7058090760083,-57.70026310576757 89.66170797756844,-57.31517185448864 90.56666776729679,-56.89001024653278 91.4206884451934,-56.424778281900025 92.22377001125822,-55.919475960590354 92.97591246549126,-55.374103282603784 92.42540304718166,-55.78070971025952 93.25591254295037,-55.15728884216801 94.02206903868941,-54.49478663199052 94.72387253439871,-53.79320307972702 95.36132303007831,-53.05253818537754 95.9344205257282,-52.27279194894206 95.76857145592922,-52.511770827339994 96.34533024691524,-51.65893640078808 96.86828226282027,-50.79533077622586 97.33742750364432,-49.92095395365337 97.7527659693874,-49.03580593307057 98.11429766004947,-48.13988671447748 97.87382504569332,-48.75145214967125 98.2446393432395,-47.78939229073391 98.55615673069082,-46.83043971077894 98.80837720804722,-45.874594409806335 99.00130077530875,-44.921856387816106 99.1349274324754,-43.97222564480824 99.00358413737092,-44.90852066247792 99.16200689285614,-43.852932621983555 99.26787131160859,-42.845760225533915 99.32117739362833,-41.88700347312904 99.32192513891533,-40.976662364768906"/></g><g style="stroke: #0000ff30;stroke-width: 10px;" transform="translate(132.47032350000003 289.86372829999993) rotate(270)"><polygon id="4-1" points="203.015625,-70.01953125 203.05900057100095,-71.04105825528008 203.18912728400372,-72.03531125564717 203.40600513900839,-73.0022902511013 203.70963413601493,-73.94199524164246 204.10001427502334,-74.85442622727065 203.9111328946937,-74.44149060877433 204.35136107709138,-75.35456243619137 204.8601723129603,-76.21487111223536 205.43756660230042,-77.0224166369063 206.0835439451118,-77.77719901020419 206.79810434139438,-78.47921823212903 206.36031379690672,-78.06351432809328 207.0916650835109,-78.73357726547782 207.8777968814177,-79.33584401572624 208.71870919062712,-79.87031457883853 209.61440201113925,-80.33698895481471 210.56487534295397,-80.73586714365476 210.008795525862,-80.51357302690903 210.93870281793647,-80.86238224434251 211.8931255137847,-81.12545049038535 212.8720636134066,-81.30277776503749 213.87551711680229,-81.394364068299 214.9034860239717,-81.40020940016984 214.453125,-81.408203125 215.47465200528006,-81.36482755399906 216.46890500564717,-81.23470084099627 217.43588400110133,-81.01782298599161 218.37558899164247,-80.71419398898507 219.28801997727064,-80.32381384997669 218.87508435877433,-80.51269523030629 219.78815618619146,-80.0724670479087 220.6484648622355,-79.56365581203985 221.45601038690643,-78.98626152269972 222.2107927602042,-78.34028417988829 222.91281198212891,-77.62572378360557 222.49710807809328,-78.06351432809328 223.17032463279108,-77.32968350240147 223.77502815827674,-76.54313716393386 224.31121865455015,-75.70387531269046 224.7788961216114,-74.81189794867123 225.17806055946045,-73.8672050718762 224.9462889803063,-74.44149060877433 225.29678903019817,-73.51652486923379 225.56070600095964,-72.56432015038557 225.73803989259056,-71.5848764522296 225.82879070509105,-70.57819377476592 225.83295843846105,-69.54427211799452 225.841796875,-70.01953125 225.79886514379956,-69.00220409726039 225.67006995019824,-68.00941754177558 225.4554112941961,-67.04117158354555 225.15488917579302,-66.09746622257029 224.76850359498906,-65.1783014588498 224.94716677690903,-65.575201775862 224.50929061576898,-64.65628563039108 224.0035146406307,-63.792220213381434 223.42983885149425,-62.983005524833025 222.78826324835953,-62.22864156474586 222.07878783122663,-61.52912833311994 222.49710807809328,-61.92672004690672 221.76327725240142,-61.253503492208836 220.97673091393378,-60.648799966723175 220.13746906269037,-60.11260947044975 219.2454916986712,-59.644932003388554 218.3007988218763,-59.24576756553959 218.87508435877433,-59.4775391446937 217.9501186192339,-59.12703909480165 216.9979139003857,-58.86312212404016 216.01847020222974,-58.68578823240922 215.01178752476602,-58.59503741990885 213.97786586799452,-58.59086968653903 214.453125,-58.58203125 213.4357978472604,-58.62496298120044 212.44301129177558,-58.75375817480175 211.47476533354552,-58.96841683080393 210.53105997257026,-59.268938949207 209.61189520884983,-59.655324530010944 210.008795525862,-59.47666134809098 209.08987938039107,-59.914537509230875 208.22581396338143,-60.420313484369075 207.416599274833,-60.993989273505576 206.66223531474586,-61.63556487664037 205.96272208311998,-62.34504029377347 206.36031379690672,-61.92672004690672 205.69025085952208,-62.65807133351078 205.08798410927363,-63.44420313141754 204.55351354616133,-64.28511544062698 204.08683917018524,-65.18080826113913 203.68796098134536,-66.131281592954 203.91025509809097,-65.575201775862 203.56144588065752,-66.50510906793646 203.29837763461472,-67.45953176378465 203.1210503599625,-68.43846986340658 203.02946405670102,-69.44192336680226 203.02361872483016,-70.46989227397171"/></g><g style="stroke: #0000ff30;stroke-width: 10px;" transform="translate(313.4860136 -53.991011800000024) rotate(180)"><polygon id="5-0" points="228.845703125,-70.01953125 228.8890786960009,-71.04105825528012 229.0192054090037,-72.03531125564723 229.23608326400839,-73.00229025110136 229.53971226101493,-73.94199524164247 229.93009240002334,-74.85442622727061 229.7412110196937,-74.44149060877433 230.1814392020913,-75.35456243619146 230.69025043796015,-76.21487111223547 231.26764472730028,-77.0224166369064 231.9136220701117,-77.7771990102042 232.62818246639443,-78.4792182321289 232.19039192190672,-78.06351432809328 232.92422274759858,-78.73673088279116 233.7107690860662,-79.34143440827683 234.5500309373096,-79.87762490455025 235.4420083013288,-80.34530237161145 236.38670117812373,-80.7444668094604 235.81241564122567,-80.51269523030629 236.73738138076627,-80.8631952801984 237.68958609961453,-81.12711225095991 238.6690297977704,-81.30444614259083 239.67571247523404,-81.39519695509118 240.7096341320054,-81.39936468846093 240.234375,-81.408203125 241.25590200528012,-81.36482755399905 242.2501550056473,-81.23470084099627 243.2171340011014,-81.01782298599161 244.1568389916425,-80.71419398898507 245.0692699772706,-80.32381384997669 244.65633435877433,-80.51269523030629 245.56940618619154,-80.0724670479087 246.4297148622356,-79.56365581203985 247.23726038690648,-78.98626152269969 247.99204276020424,-78.34028417988827 248.69406198212886,-77.6257237836056 248.27835807809328,-78.06351432809328 248.9515746327911,-77.32968350240144 249.55627815827674,-76.54313716393382 250.0924686545502,-75.70387531269043 250.5601461216114,-74.81189794867122 250.95931055946045,-73.86720507187623 250.7275389803063,-74.44149060877433 251.0780390301983,-73.51652486923388 251.34195600095978,-72.56432015038567 251.51928989259076,-71.58487645222971 251.61004070509114,-70.57819377476599 251.614208438461,-69.54427211799455 251.623046875,-70.01953125 251.58011514379953,-69.0022040972604 251.45131995019824,-68.00941754177559 251.23666129419604,-67.04117158354555 250.936139175793,-66.09746622257029 250.54975359498908,-65.1783014588498 250.72841677690903,-65.575201775862 250.29054061576898,-64.65628563039115 249.78476464063075,-63.792220213381526 249.21108885149425,-62.9830055248331 248.56951324835953,-62.22864156474589 247.86003783122658,-61.529128333119885 248.27835807809328,-61.92672004690672 247.5445272524015,-61.253503492208885 246.75798091393386,-60.64879996672325 245.91871906269046,-60.11260947044982 245.02674169867123,-59.644932003388575 244.0820488218762,-59.24576756553952 244.65633435877433,-59.4775391446937 243.7313686192338,-59.12703909480177 242.77916390038556,-58.86312212404036 241.7997202022296,-58.68578823240941 240.7930375247659,-58.595037419908934 239.75911586799447,-58.59086968653894 240.234375,-58.58203125 239.21284799471985,-58.62540682100092 238.21859499435274,-58.75553353400373 237.25161599889861,-58.972411389008386 236.31191100835753,-59.27604038601492 235.3994800227294,-59.66642052502331 235.81241564122567,-59.4775391446937 234.8993438138086,-59.917767327091404 234.03903513776459,-60.426578562960316 233.2314896130937,-61.00397285230045 232.47670723979576,-61.6499501951118 231.77468801787091,-62.36451059139438 232.19039192190672,-61.92672004690672 231.5203289845222,-62.658071333510904 230.91806223427375,-63.444203131417716 230.38359167116144,-64.28511544062715 229.9169172951853,-65.18080826113925 229.51803910634527,-66.13128159295397 229.74033322309097,-65.575201775862 229.39152400565754,-66.50510906793646 229.1284557596147,-67.45953176378465 228.9511284849625,-68.43846986340658 228.859542181701,-69.44192336680226 228.85369684983016,-70.46989227397171"/></g></svg>